HIERARCHY
ROOT pelvis
{
  OFFSET 0 100 0
  CHANNELS 6 Xposition Yposition Zposition Zrotation Xrotation Yrotation
  JOINT pelvis_right_femur
  {
    OFFSET -10.78128 -3.44521 -0.5502486
    CHANNELS 3 Zrotation Xrotation Yrotation
    JOINT right_femur_tibia
    {
      OFFSET -0.8047443 -44.0398 -0.1307829
      CHANNELS 3 Zrotation Xrotation Yrotation
      JOINT right_tibia_foot
      {
        OFFSET 3.006224 -47.83518 -5
        CHANNELS 3 Zrotation Xrotation Yrotation
        End Site
        {
          OFFSET 0 -5 15
        }
      }
    }
  }
  JOINT pelvis_left_femur
  {
    OFFSET 10.78128 -3.44521 -0.5502486
    CHANNELS 3 Zrotation Xrotation Yrotation
    JOINT left_femur_tibia
    {
      OFFSET 0.8047443 -44.0398 -0.1307829
      CHANNELS 3 Zrotation Xrotation Yrotation
      JOINT left_tibia_foot
      {
        OFFSET -4.370144 -48.10324 -4.275266
        CHANNELS 3 Zrotation Xrotation Yrotation
        End Site
        {
          OFFSET 0 -5 15
        }
      }
    }
  }
  JOINT pelvis_spine1
  {
    OFFSET 0 6.468898 -3.129235
    CHANNELS 3 Zrotation Xrotation Yrotation
    JOINT spine1
    {
      OFFSET 0 23.15396 4.99043
      CHANNELS 3 Zrotation Xrotation Yrotation
      JOINT spine2
      {
        OFFSET 0 20.79997 -5.064912
        CHANNELS 3 Zrotation Xrotation Yrotation
        JOINT neck
        {
          OFFSET 0 14.38658 9.616178
          CHANNELS 3 Zrotation Xrotation Yrotation
          End Site
          {
            OFFSET 0 20 0
          }
        }
      }
      JOINT right_manubrium
      {
        OFFSET -5.722621 16.35077 3.967754
        CHANNELS 3 Zrotation Xrotation Yrotation
        JOINT right_clavicle
        {
          OFFSET -13.16364 1.694482 -4.693211
          CHANNELS 3 Zrotation Xrotation Yrotation
          JOINT right_humerus
          {
            OFFSET -28.5034 -0.3100689 -2.792744
            CHANNELS 3 Zrotation Xrotation Yrotation
            JOINT right_radius
            {
              OFFSET -25.15693 0.02248979 -1.271978
              CHANNELS 3 Zrotation Xrotation Yrotation
              End Site
              {
                OFFSET -15 0 0
              }
            }
          }
        }
      }
      JOINT left_manubrium
      {
        OFFSET 5.722621 16.35077 3.967754
        CHANNELS 3 Zrotation Xrotation Yrotation
        JOINT left_clavicle
        {
          OFFSET 13.16364 1.694482 -4.693211
          CHANNELS 3 Zrotation Xrotation Yrotation
          JOINT left_humerus
          {
            OFFSET 29.39168 -1.063119 -2.237045
            CHANNELS 3 Zrotation Xrotation Yrotation
            JOINT left_radius
            {
              OFFSET 24.59957 -0.9528479 0.9047498
              CHANNELS 3 Zrotation Xrotation Yrotation
              End Site
              {
                OFFSET 15 -0 -0
              }
            }
          }
        }
      }
    }
  }
}
MOTION
Frames: 23
Frame Time: 0.0416666666667
0 103.5113 0 0.7529495 -0.4032293 0.1004256 4.059495 -18.59232 10.11327 -0 39.94976 -0 -5.414243 -17.18814 -3.639232 -7.029335 10.68811 -24.30414 -0 5.819756 -0 10.22601 -15.97303 27.60635 -3.767254 -3.258398 4.319758 2.439802 9.178976 -7.239393 1.591502 22.2103 6.983395 2.907231 -24.61644 10.18255 6.813561 -19.28896 11.47536 85.07071 37.41524 -17.9991 -0 0 15.92426 -6.318985 8.796106 4.687759 5.314629 -18.3894 -1.524787 -93.40067 27.22078 21.53948 0 0 -15.97759 8.600232 16.77299 4.62031
0.278269 104.0067 1.440925 0.7967872 -0.8097766 0.2283204 3.769151 -17.91873 9.79737 -0 40.96777 -0 -5.626269 -16.6391 -3.595525 -6.978528 10.72372 -24.19978 -0 5.946914 -0 9.708551 -15.88389 27.28261 -3.716769 -3.238354 4.19358 2.296387 9.250436 -7.163652 1.549607 22.37859 7.035199 2.933097 -24.39644 10.11689 6.694075 -19.26195 11.48114 85.23663 37.05794 -17.97308 -0 0 15.78269 -6.82218 8.837646 4.87154 5.196323 -18.43228 -1.757122 -93.33151 27.44448 21.48673 0 0 -15.94553 8.15497 16.95042 5.082904
0.5805161 104.3031 3.17634 0.3896756 -0.02222089 0.3413563 4.441191 -21.24217 8.991809 -0 36.1447 -0 -5.352477 -15.03556 -3.138635 -6.761918 11.23848 -23.22004 -0 5.407647 -0 8.884577 -17.74706 26.36124 -3.456887 -2.76349 4.252322 2.486791 9.184541 -7.344092 1.588055 21.91138 7.186535 3.120755 -24.98409 10.22932 6.327591 -19.14897 11.41134 85.51253 36.38485 -18.55358 -0 0 15.61037 -7.085242 8.914947 4.721586 5.903187 -19.20247 -1.621088 -93.03352 26.94329 20.87088 0 0 -17.08035 8.750696 16.68435 4.424106
0.8962767 104.4076 5.204375 -0.000764728 0.863106 0.4777183 5.17025 -24.38416 8.465882 -0 31.60237 -0 -5.086738 -13.61955 -2.773812 -6.572189 11.76385 -22.35509 -0 5.155497 -0 8.19163 -19.36899 25.546 -3.229801 -2.380842 4.308385 2.702001 9.083335 -7.531191 1.632009 21.43466 7.323238 3.283562 -25.58061 10.36905 6.061667 -18.99316 11.33694 85.74719 36.00717 -19.14169 -0 0 15.37415 -7.152075 9.037113 4.531494 6.548353 -19.86593 -1.386969 -92.78206 26.46489 20.33066 0 0 -18.18592 9.352431 16.38408 3.777142
1.216719 104.3295 7.611327 -0.439799 1.721999 0.6699426 5.897023 -27.56698 7.807587 -0 27.03532 -0 -4.963421 -11.65464 -2.367433 -6.322788 12.42853 -21.29035 -0 5.275723 -0 7.06528 -21.00405 24.34728 -2.925545 -1.973255 4.275878 2.879677 8.986323 -7.707766 1.658643 20.96913 7.508261 3.475456 -26.14703 10.50657 5.724976 -18.74235 11.2448 86.12197 35.51562 -19.82839 -0 0 14.9131 -7.437817 9.239095 4.407902 7.191816 -20.61153 -1.19498 -92.43043 25.99157 19.65841 0 0 -19.45666 9.847144 16.08869 3.236295
1.532522 104.1084 10.46283 -0.9205538 2.54763 0.9456024 6.633552 -30.54161 7.165611 -0 22.8047 -0 -5.003967 -9.418164 -1.978308 -6.022208 13.18016 -20.13858 -0 5.944217 -0 5.520214 -22.44959 22.80354 -2.543348 -1.584792 4.157298 3.018764 8.869845 -7.869026 1.667386 20.53225 7.726413 3.679003 -26.65379 10.64067 5.381473 -18.39347 11.13144 86.5761 35.03566 -20.56952 -0 0 14.27482 -7.811395 9.510757 4.317987 7.767686 -21.33807 -1.020897 -92.06785 25.62061 18.9816 0 0 -20.74945 10.14686 15.81878 2.918357
1.836552 103.8011 13.83244 -1.444212 3.287009 1.327438 7.359998 -33.10459 6.534403 -0 19.14797 -0 -5.280926 -6.99224 -1.601731 -5.661939 13.95846 -18.88538 -0 7.393435 -0 3.541428 -23.48125 20.85362 -2.057416 -1.230832 3.939104 3.106059 8.747403 -8.010644 1.64489 20.14788 7.965623 3.883778 -27.05622 10.74023 5.040351 -17.94672 11.00211 87.10844 34.57637 -21.33001 -0 0 13.44618 -8.279992 9.831757 4.28342 8.224016 -22.0092 -0.8958621 -91.67316 25.30785 18.30157 0 0 -21.96836 10.28346 15.54631 2.778671
2.125974 103.4949 17.78274 -2.001054 3.888891 1.822678 8.066673 -34.94412 5.971795 -0 16.39368 -0 -5.845206 -4.636181 -1.252823 -5.240844 14.64255 -17.56795 -0 9.907284 -0 1.22742 -23.78762 18.54318 -1.454281 -0.9476906 3.628429 3.137006 8.632422 -8.135229 1.575307 19.84172 8.199756 4.068279 -27.30849 10.76473 4.74278 -17.42288 10.86836 87.68866 34.21219 -22.06104 -0 0 12.45864 -8.782566 10.1674 4.31132 8.483094 -22.55276 -0.8403347 -91.26715 25.04097 17.68779 0 0 -22.96255 10.26581 15.23726 2.809465
2.404062 103.3086 22.35193 -2.561895 4.265386 2.40827 8.713601 -35.6646 5.501803 -0 14.85531 -0 -6.73195 -2.685197 -0.9490768 -4.761696 15.04585 -16.21819 -0 13.81994 -0 -1.206287 -23.01945 16.0174 -0.7331489 -0.7731477 3.252847 3.10779 8.558374 -8.248185 1.438594 19.65109 8.39002 4.205241 -27.35317 10.65416 4.52454 -16.86726 10.7519 88.29041 34.00316 -22.70618 -0 0 11.36117 -9.275289 10.46667 4.417429 8.458777 -22.90362 -0.8921905 -90.86279 24.78411 17.20956 0 0 -23.56395 10.12223 14.85107 2.973864
2.681023 103.3898 27.52881 -3.067864 4.30856 3.014454 9.228184 -34.85263 5.121362 -0 14.69977 -0 -7.910698 -1.535405 -0.7259168 -4.241214 14.90063 -14.88045 -0 19.45167 -0 -3.422408 -20.90746 13.55752 0.07353044 -0.7338765 2.883178 3.020202 8.57763 -8.353379 1.222258 19.61502 8.488329 4.270073 -27.13924 10.34745 4.41705 -16.35517 10.6856 88.87734 33.99594 -23.20483 -0 0 10.24687 -9.730584 10.68006 4.613907 8.08423 -23.01662 -1.087654 -90.49226 24.49921 16.95725 0 0 -23.61034 9.882915 14.36405 3.232211
2.97091 103.8916 33.22623 -3.42281 3.906748 3.51793 9.501202 -32.22165 4.776981 -0 15.73353 -0 -9.249442 -1.491195 -0.631575 -3.721716 13.87191 -13.59771 -0 26.98532 -0 -5.066061 -17.45452 11.52036 0.8790935 -0.8147674 2.646158 2.878681 8.758621 -8.437738 0.9401704 19.76394 8.44847 4.257566 -26.64023 9.811537 4.425559 -15.98284 10.70908 89.40305 34.18098 -23.49631 -0 0 9.251774 -10.18181 10.788 4.907013 7.362369 -22.9035 -1.445809 -90.20796 24.14548 17.01616 0 0 -23.01045 9.580351 13.79807 3.540983
3.28313 104.9258 39.26561 -3.503265 2.994597 3.766934 9.419294 -27.80545 4.38787 -0 17.24959 -0 -10.51388 -2.560456 -0.6929035 -3.277742 11.61429 -12.40225 -0 36.23956 -0 -5.931553 -13.12475 10.21832 1.529339 -0.9315468 2.712667 2.683717 9.16016 -8.450605 0.6530143 20.10187 8.242444 4.195205 -25.87846 9.080207 4.514004 -15.84011 10.85261 89.80039 34.4744 -23.5138 -0 0 8.539775 -10.73818 10.83044 5.293163 6.412642 -22.6533 -1.940706 -90.08002 23.69805 17.43566 0 0 -21.82261 9.243353 13.23976 3.866761
3.611047 106.4972 45.3944 -3.19818 1.614342 3.651183 8.917154 -22.05683 3.896564 -0 18.17076 -0 -11.44721 -4.349637 -0.8619638 -2.990844 7.884949 -11.30445 -0 46.37503 -0 -6.056079 -8.843172 9.813689 1.824623 -0.9422839 3.230083 2.423144 9.780535 -8.298023 0.4627995 20.59675 7.871347 4.129897 -24.93223 8.266678 4.605124 -15.97332 11.11059 89.96962 34.75126 -23.15921 -0 0 8.258451 -11.5368 10.89931 5.763329 5.46094 -22.40263 -2.483317 -90.16225 23.17376 18.18522 0 0 -20.29149 8.901049 12.81768 4.184018
3.927658 108.4532 51.34794 -2.478593 -0.04976487 3.184682 8.029926 -15.69584 3.316048 -0 17.59871 -0 -11.89732 -6.264343 -1.015542 -2.869899 2.688728 -10.27886 -0 55.68959 -0 -5.632983 -5.647951 10.28324 1.603238 -0.726194 4.206216 2.077982 10.50972 -7.886161 0.4551164 21.18556 7.365234 4.08043 -23.91635 7.519265 4.607794 -16.37333 11.42709 89.77827 34.94036 -22.27611 -0 0 8.493517 -12.63532 11.08303 6.322292 4.738747 -22.24325 -2.935362 -90.43962 22.64024 19.1402 0 0 -18.76222 8.594244 12.62845 4.445577
4.199481 110.4921 56.93653 -1.468578 -1.707192 2.518649 6.933846 -9.362673 2.728589 -0 15.3994 -0 -11.88133 -7.938987 -1.041063 -2.752231 -3.618324 -9.236649 -0 61.8196 -0 -4.841366 -4.119423 11.4399 0.8706629 -0.2822198 5.428481 1.655684 11.1482 -7.210886 0.6160271 21.78373 6.780721 3.995277 -22.95526 6.942755 4.450286 -17.01673 11.72283 89.09677 35.07729 -20.67384 -0 0 9.269704 -13.96092 11.41179 7.018774 4.35062 -22.13898 -3.168722 -90.81653 22.16844 20.14911 0 0 -17.47467 8.370583 12.66229 4.560242
4.415796 112.2471 62.10973 -0.4568015 -3.051901 1.842836 5.92872 -3.388297 2.222526 -0 12.22075 -0 -11.51258 -9.489441 -0.9087976 -2.303613 -10.36035 -8.021959 -0 62.56686 -0 -3.801845 -4.046693 12.99825 -0.1256196 0.2554112 6.530886 1.223062 11.50841 -6.408978 0.8137525 22.28728 6.202078 3.774716 -22.17308 6.560331 4.093458 -17.91955 11.94341 87.86519 35.21564 -18.2352 -0 0 10.60089 -15.39044 11.8518 7.956574 4.232632 -21.94851 -3.132206 -91.19437 21.7648 21.16631 0 0 -16.40272 8.233799 12.79872 4.467828
4.609695 113.4076 66.95991 0.2128277 -3.851921 1.262647 5.294896 2.13562 1.811094 -0 8.937287 -0 -10.88676 -11.33477 -0.6367783 -1.213599 -16.7332 -6.520555 -0 57.03351 -0 -2.688209 -4.658194 14.65125 -0.9950263 0.703433 7.201612 0.8811492 11.50487 -5.681816 0.8902251 22.59342 5.7318 3.359035 -21.6683 6.346884 3.542632 -19.10762 12.06527 86.1397 35.31298 -15.04479 -0 0 12.49987 -16.84531 12.32076 9.244233 4.241958 -21.53287 -2.855325 -91.57176 21.38624 22.30812 0 0 -15.30208 8.087687 12.88526 4.277787
4.848343 113.8139 71.66982 0.33604 -4.01165 0.771839 5.098416 7.174545 1.41453 -0 6.169072 -0 -10.07099 -13.78395 -0.2134694 0.5061829 -22.06131 -4.862758 -0 46.26225 -0 -1.7906 -5.180288 16.13189 -1.438219 0.9249948 7.361888 0.6870538 11.14867 -5.143879 0.7799833 22.65859 5.463734 2.811717 -21.44512 6.278702 2.879342 -20.49862 12.05853 84.06987 35.28394 -11.41395 -0 0 14.88684 -18.28276 12.69575 10.88737 4.282505 -20.83217 -2.395082 -92.04886 21.0207 23.72114 0 0 -13.88988 7.780791 12.8419 4.249625
5.201603 113.4824 76.44345 -0.02327735 -3.607286 0.3116166 5.131399 11.68149 0.9281776 -0 4.247891 -0 -9.162361 -16.70941 0.4108019 2.390259 -25.98144 -3.505326 -0 32.88635 -0 -1.398922 -5.232116 17.29185 -1.418036 0.872368 7.170312 0.6045507 10.49871 -4.748267 0.5477087 22.54406 5.453176 2.321445 -21.37292 6.3467 2.263517 -21.83715 11.87867 81.83351 35.13673 -7.764772 -0 0 17.48917 -19.65366 12.84151 12.7153 4.355923 -19.87053 -1.809197 -92.72988 20.69862 25.37984 0 0 -11.97122 7.250808 12.70912 4.557194
5.718677 112.5746 81.45876 -0.5760407 -2.877854 -0.1765659 5.04207 15.62124 0.3115487 -0 3.421642 -0 -8.309636 -19.46014 1.254153 3.728162 -28.45419 -3.018737 -0 20.07268 -0 -1.61663 -4.861028 18.15929 -1.142006 0.5841859 6.884014 0.530464 9.65385 -4.348508 0.3341281 22.39147 5.694805 2.108626 -21.25317 6.539168 1.86142 -22.7884 11.50651 79.61953 34.97584 -4.48841 -0 0 19.86206 -20.91415 12.66394 14.43089 4.518837 -18.73683 -1.178031 -93.62001 20.42928 27.02964 0 0 -9.493562 6.610678 12.60419 5.108462
6.422281 111.345 86.85296 -0.9738103 -2.157364 -0.7305941 4.533573 18.97053 -0.3679677 -0 4.018884 -0 -7.691724 -21.02833 2.230871 3.962725 -29.60067 -3.722398 -0 10.4095 -0 -2.280797 -4.360303 18.88363 -0.9138534 0.150582 6.704118 0.3628905 8.773278 -3.820891 0.2733072 22.34417 6.1116 2.295948 -20.95336 6.822391 1.74557 -23.11991 10.98193 77.68747 34.87006 -1.895374 -0 0 21.53229 -22.05247 12.14856 15.75435 4.801462 -17.56915 -0.6186001 -94.59174 20.1776 28.32144 0 0 -6.595807 6.078477 12.62665 5.628771
7.306843 110.0962 92.72033 -0.977287 -1.771058 -1.341475 3.497772 21.66065 -0.9528282 -0 6.476226 -0 -7.482114 -20.39754 3.154585 2.964074 -29.50777 -5.478833 -0 5.222971 -0 -3.035474 -4.057938 19.59902 -0.9769458 -0.3343398 6.692081 0.05438428 8.067367 -3.148478 0.4349562 22.47635 6.566615 2.832938 -20.49758 7.140103 1.849401 -22.82175 10.3979 76.40747 34.75031 -0.2365767 -0 0 22.16309 -23.07237 11.36094 16.54877 5.153067 -16.53241 -0.2570337 -95.43365 19.91077 29.0021 0 0 -3.627174 5.830375 12.77915 5.894892
8.333079 109.1407 99.0975 -0.5446652 -1.939453 -1.920105 2.043398 23.51653 -1.266144 -0 11.20432 -0 -7.788723 -16.93819 3.83776 1.041365 -28.16892 -7.768598 -0 4.451032 -0 -3.493104 -4.168591 20.3324 -1.420244 -0.7986702 6.767605 -0.3748818 7.743248 -2.427672 0.8056345 22.77256 6.909216 3.523086 -20.04962 7.435348 2.007762 -22.09225 9.872342 76.17708 34.4274 0.3045094 -0 0 21.65247 -23.95367 10.41977 16.85325 5.449474 -15.78202 -0.185045 -95.94172 19.64086 29.01378 0 0 -1.068469 5.903213 12.95476 5.888256
